<svg width="30" height="30" viewBox="0 0 803 918" fill="none" xmlns="http://www.w3.org/2000/svg">
<path d="M532.746 436.05C531.977 445.139 528.58 453.808 522.968 460.998C517.357 468.188 509.774 473.588 501.145 476.539C492.517 479.49 483.216 479.864 474.379 477.616C465.541 475.368 457.549 470.594 451.378 463.879C445.207 457.163 441.125 448.795 439.628 439.797C438.132 430.799 439.287 421.56 442.952 413.208C446.618 404.855 452.635 397.751 460.269 392.762C467.903 387.774 476.824 385.116 485.943 385.114C492.361 385.381 498.663 386.91 504.49 389.615C510.316 392.319 515.553 396.147 519.9 400.877C524.246 405.608 527.618 411.149 529.823 417.184C532.027 423.22 533.021 429.63 532.746 436.05V436.05ZM318.447 385.114C305.658 386.162 293.731 391.983 285.036 401.422C276.341 410.862 271.513 423.227 271.513 436.063C271.513 448.899 276.341 461.265 285.036 470.704C293.731 480.143 305.658 485.965 318.447 487.012C324.865 486.746 331.167 485.216 336.994 482.512C342.82 479.807 348.057 475.98 352.404 471.249C356.751 466.518 360.123 460.977 362.327 454.942C364.531 448.906 365.525 442.496 365.25 436.076C365.567 429.645 364.603 423.216 362.415 417.161C360.226 411.106 356.857 405.546 352.502 400.805C348.148 396.063 342.895 392.234 337.049 389.541C331.202 386.847 324.879 385.343 318.447 385.114V385.114ZM803 94.554V918C687.394 815.709 724.339 849.648 590.09 724.748L614.397 809.676H94.0789C69.076 809.593 45.1276 799.59 27.4896 781.863C9.85168 764.136 -0.0347733 740.133 9.19036e-05 715.122V94.554C-0.0347733 69.5432 9.85168 45.5403 27.4896 27.8133C45.1276 10.0862 69.076 0.083345 94.0789 0L708.947 0C733.946 0.0902761 757.887 10.0962 775.52 27.8225C793.152 45.5488 803.035 69.5478 803 94.554V94.554ZM672.213 529.817C670.713 436.787 648.12 345.311 606.137 262.286C569.211 233.186 524.16 216.276 477.211 213.894L470.787 221.238C512.574 232.362 551.523 252.236 585.056 279.544C532.718 251.327 474.621 235.456 415.21 233.147C355.799 230.837 296.646 242.15 242.277 266.22C225.286 274.089 215.217 279.518 215.217 279.518C250.521 250.863 291.701 230.338 335.831 219.402L331.242 213.894C284.323 216.229 239.285 233.073 202.343 262.102C160.36 345.189 137.793 436.731 136.346 529.817C152.173 552.03 173.216 570.011 197.623 582.176C222.03 594.342 249.052 600.321 276.311 599.585C276.311 599.585 293.302 578.917 307.067 561.501C274.803 553.364 246.395 534.206 226.754 507.339C233.493 512.06 244.636 518.198 245.554 518.827C289.104 542.572 337.389 556.331 386.91 559.107C436.432 561.884 485.951 553.608 531.881 534.879C550.466 527.834 568.19 518.7 584.715 507.654C564.34 535.101 534.916 554.454 501.649 562.288C515.415 579.73 531.933 599.48 531.933 599.48C559.216 600.154 586.251 594.162 610.696 582.023C635.14 569.883 656.256 551.964 672.213 529.817V529.817Z" fill="url(#paint0_linear_135_9379)"/>
<defs>
<linearGradient id="paint0_linear_135_9379" x1="259.851" y1="-120.692" x2="-231.545" y2="585.029" gradientUnits="userSpaceOnUse">
<stop stop-color="#FF00D6"/>
<stop offset="1" stop-color="#FCFFFA"/>
</linearGradient>
</defs>
</svg>