<svg width="30" height="30" viewBox="0 0 38 31" fill="none" xmlns="http://www.w3.org/2000/svg">
<g clip-path="url(#clip0_127_5189)">
<path d="M33.9311 7.71333C33.9548 8.04132 33.9548 8.36932 33.9548 8.69732C33.9744 11.5313 33.4307 14.3409 32.3553 16.9629C31.2798 19.585 29.694 21.9672 27.6901 23.9712C25.6861 25.9751 23.3039 27.5609 20.6819 28.6363C18.0598 29.7118 15.2502 30.2555 12.4162 30.2359C8.29488 30.2466 4.25817 29.0665 0.791504 26.8377C1.39838 26.9043 2.00863 26.9354 2.61913 26.9308C6.02712 26.9405 9.33898 25.8017 12.0203 23.6981C10.4406 23.6694 8.9093 23.1481 7.64026 22.207C6.37121 21.2659 5.42778 19.9519 4.94171 18.4486C5.41484 18.5233 5.89292 18.5624 6.3719 18.5653C7.04394 18.5636 7.71307 18.4772 8.36353 18.3083C6.64902 17.9618 5.10739 17.0323 4.00065 15.6777C2.89392 14.3232 2.29038 12.6272 2.29261 10.8781V10.785C3.34163 11.3702 4.51409 11.6993 5.71443 11.7453C4.10728 10.674 2.96968 9.02955 2.53392 7.14783C2.09816 5.26611 2.39709 3.28902 3.36969 1.62025C5.27129 3.96054 7.64354 5.87501 10.3326 7.23953C13.0217 8.60405 15.9675 9.38814 18.9791 9.54096C18.8572 8.96875 18.7943 8.38554 18.7915 7.8005C18.795 6.28311 19.254 4.80173 20.1091 3.54817C20.9641 2.29461 22.1757 1.3266 23.5871 0.769481C24.9986 0.212364 26.5447 0.0917988 28.0254 0.423397C29.5062 0.754995 30.8532 1.52348 31.8922 2.62936C33.5867 2.30177 35.2115 1.68237 36.694 0.798773C36.1294 2.54847 34.9458 4.03205 33.3653 4.97114C34.8699 4.80045 36.3405 4.40553 37.7282 3.79951C36.6917 5.30841 35.408 6.63159 33.9311 7.71333V7.71333Z" stroke="url(#paint0_linear_127_5189)" stroke-width="0.956393"/>
<path d="M33.9311 7.71333C33.9548 8.04132 33.9548 8.36932 33.9548 8.69732C33.9744 11.5313 33.4307 14.3409 32.3553 16.9629C31.2798 19.585 29.694 21.9672 27.6901 23.9712C25.6861 25.9751 23.3039 27.5609 20.6819 28.6363C18.0598 29.7118 15.2502 30.2555 12.4162 30.2359C8.29488 30.2466 4.25817 29.0665 0.791504 26.8377C1.39838 26.9043 2.00863 26.9354 2.61913 26.9308C6.02712 26.9405 9.33898 25.8017 12.0203 23.6981C10.4406 23.6694 8.9093 23.1481 7.64026 22.207C6.37121 21.2659 5.42778 19.9519 4.94171 18.4486C5.41484 18.5233 5.89292 18.5624 6.3719 18.5653C7.04394 18.5636 7.71307 18.4772 8.36353 18.3083C6.64902 17.9618 5.10739 17.0323 4.00065 15.6777C2.89392 14.3232 2.29038 12.6272 2.29261 10.8781V10.785C3.34163 11.3702 4.51409 11.6993 5.71443 11.7453C4.10728 10.674 2.96968 9.02955 2.53392 7.14783C2.09816 5.26611 2.39709 3.28902 3.36969 1.62025C5.27129 3.96054 7.64354 5.87501 10.3326 7.23953C13.0217 8.60405 15.9675 9.38814 18.9791 9.54095C18.8572 8.96875 18.7943 8.38554 18.7915 7.8005C18.795 6.28311 19.254 4.80173 20.1091 3.54817C20.9641 2.29461 22.1757 1.3266 23.5871 0.769481C24.9986 0.212364 26.5447 0.0917988 28.0254 0.423397C29.5062 0.754995 30.8532 1.52348 31.8922 2.62936C33.5867 2.30177 35.2115 1.68237 36.694 0.798773C36.1294 2.54847 34.9458 4.03205 33.3653 4.97114C34.8699 4.80045 36.3405 4.40553 37.7282 3.79951C36.6917 5.30841 35.408 6.63159 33.9311 7.71333Z" fill="url(#paint1_linear_127_5189)"/>
</g>
<defs>
<linearGradient id="paint0_linear_127_5189" x1="12.7442" y1="-3.70345" x2="-0.862808" y2="23.8062" gradientUnits="userSpaceOnUse">
<stop stop-color="#FCFFFA" stop-opacity="0"/>
<stop offset="0.625" stop-color="#FCFFFA"/>
<stop offset="1" stop-color="#FF00D6"/>
</linearGradient>
<linearGradient id="paint1_linear_127_5189" x1="12.7442" y1="-3.70345" x2="-0.862808" y2="23.8062" gradientUnits="userSpaceOnUse">
<stop stop-color="#FF00D6"/>
<stop offset="1" stop-color="#FCFFFA"/>
</linearGradient>
<clipPath id="clip0_127_5189">
<rect width="36.9367" height="30" fill="white" transform="translate(0.791504 0.237305)"/>
</clipPath>
</defs>
</svg>