<svg width="23" height="23" viewBox="0 0 23 23" fill="none" xmlns="http://www.w3.org/2000/svg">
<path fill-rule="evenodd" clip-rule="evenodd" d="M3 2.875C3 1.28718 4.34314 0 6 0H12.8787C13.6743 0 14.4374 0.302896 15 0.842073L20.1213 5.75C20.6839 6.28916 21 7.02043 21 7.78293V20.125C21 21.7129 19.6569 23 18 23H6C4.34314 23 3 21.7129 3 20.125V2.875ZM6 11.5C6 10.7061 6.67158 10.0625 7.5 10.0625H16.5C17.3284 10.0625 18 10.7061 18 11.5C18 12.2939 17.3284 12.9375 16.5 12.9375H7.5C6.67158 12.9375 6 12.2939 6 11.5ZM7.5 15.8125C6.67158 15.8125 6 16.4561 6 17.25C6 18.0439 6.67158 18.6875 7.5 18.6875H16.5C17.3284 18.6875 18 18.0439 18 17.25C18 16.4561 17.3284 15.8125 16.5 15.8125H7.5Z" fill="#01011B"/>
</svg>
