<svg width="30" height="30" viewBox="0 0 31 31" fill="none" xmlns="http://www.w3.org/2000/svg">
<g clip-path="url(#clip0_127_5180)">
<path d="M28.7173 8.20729C28.3932 7.0024 27.4433 6.0526 26.2385 5.72816C24.0377 5.12598 15.234 5.12598 15.234 5.12598C15.234 5.12598 6.43072 5.12598 4.22985 5.70533C3.0483 6.02943 2.07516 7.00258 1.75106 8.20729C1.17188 10.408 1.17188 14.9719 1.17188 14.9719C1.17188 14.9719 1.17188 19.5589 1.75106 21.7366C2.0755 22.9413 3.02513 23.8911 4.23002 24.2156C6.45389 24.8179 15.2344 24.8179 15.2344 24.8179C15.2344 24.8179 24.0377 24.8179 26.2385 24.2386C27.4434 23.9143 28.3932 22.9645 28.7177 21.7598C29.2967 19.5589 29.2967 14.9951 29.2967 14.9951C29.2967 14.9951 29.3199 10.408 28.7173 8.20729V8.20729ZM12.4311 19.1883V10.7556L19.7518 14.9719L12.4311 19.1883Z" stroke="url(#paint0_linear_127_5180)" stroke-width="0.956393"/>
<path d="M28.7173 8.20729C28.3932 7.0024 27.4433 6.0526 26.2385 5.72816C24.0377 5.12598 15.234 5.12598 15.234 5.12598C15.234 5.12598 6.43072 5.12598 4.22985 5.70533C3.0483 6.02943 2.07516 7.00258 1.75106 8.20729C1.17188 10.408 1.17188 14.9719 1.17188 14.9719C1.17188 14.9719 1.17188 19.5589 1.75106 21.7366C2.0755 22.9413 3.02513 23.8911 4.23002 24.2156C6.45389 24.8179 15.2344 24.8179 15.2344 24.8179C15.2344 24.8179 24.0377 24.8179 26.2385 24.2386C27.4434 23.9143 28.3932 22.9645 28.7177 21.7598C29.2967 19.5589 29.2967 14.9951 29.2967 14.9951C29.2967 14.9951 29.3199 10.408 28.7173 8.20729ZM12.4311 19.1883V10.7556L19.7518 14.9719L12.4311 19.1883Z" fill="url(#paint1_linear_127_5180)"/>
</g>
<defs>
<linearGradient id="paint0_linear_127_5180" x1="10.2731" y1="2.53702" x2="2.16238" y2="21.5562" gradientUnits="userSpaceOnUse">
<stop stop-color="#FCFFFA" stop-opacity="0"/>
<stop offset="0.625" stop-color="#FCFFFA"/>
<stop offset="1" stop-color="#FF00D6"/>
</linearGradient>
<linearGradient id="paint1_linear_127_5180" x1="10.2731" y1="2.53702" x2="2.16238" y2="21.5562" gradientUnits="userSpaceOnUse">
<stop stop-color="#FF00D6"/>
<stop offset="1" stop-color="#FCFFFA"/>
</linearGradient>
<clipPath id="clip0_127_5180">
<rect width="30" height="30" fill="white" transform="translate(0.25 0.237305)"/>
</clipPath>
</defs>
</svg>