<svg width="156" height="33" viewBox="0 0 156 33" fill="none" xmlns="http://www.w3.org/2000/svg">
<g style="mix-blend-mode:screen">
<circle cx="16.1172" cy="17" r="13.6176" stroke="url(#paint0_linear_11_6423)" stroke-linejoin="round"/>
</g>
<path d="M13.8721 14.4818L8.04492 10.0851L27.0731 10.1121L23.8615 17.6794L19.906 29.8451L17.083 19.8778L13.8721 14.4818Z" fill="url(#paint1_linear_11_6423)"/>
<g filter="url(#filter0_b_11_6423)">
<path d="M13.591 14.4994L8.04126 10.1093L27.1247 10.1363L22.5065 17.6922L19.9335 29.8649L16.649 19.8873L13.591 14.4994Z" fill="url(#paint2_radial_11_6423)"/>
<path d="M13.6916 14.3722L13.7164 14.3918L13.732 14.4193L16.79 19.8072L16.798 19.8213L16.803 19.8366L19.8993 29.2423L22.3478 17.6587L22.3536 17.6314L22.3681 17.6076L26.8357 10.2981L8.50858 10.2721L13.6916 14.3722Z" stroke="white" stroke-opacity="0.01" stroke-width="0.3244"/>
</g>
<g style="mix-blend-mode:soft-light" filter="url(#filter1_b_11_6423)">
<path d="M13.591 14.4994L8.04126 10.1093L27.1247 10.1363L22.5065 17.6922L19.9335 29.8649L16.649 19.8873L13.591 14.4994Z" fill="url(#paint3_linear_11_6423)"/>
</g>
<g filter="url(#filter2_b_11_6423)">
<path d="M10.3848 17.1369L6.29858 10.1089L24.6004 10.1359L21.0546 14.0286L18.366 24.6902L14.1457 33L11.8707 22.7593L10.3848 17.1369Z" fill="url(#paint4_radial_11_6423)"/>
<path d="M10.525 17.0554L10.536 17.0743L10.5416 17.0954L12.0275 22.7178L12.0277 22.7178L12.0291 22.7241L14.206 32.5232L18.2132 24.633L20.8974 13.989L20.9073 13.9495L20.9347 13.9194L24.2337 10.2976L6.58076 10.2715L10.525 17.0554Z" stroke="white" stroke-opacity="0.01" stroke-width="0.3244"/>
</g>
<g filter="url(#filter3_b_11_6423)">
<path d="M14.603 8.38545L8.85181 10.1352H27.1481L24.4622 7.11293L19.8801 2.23621L17.772 6.23807L14.603 8.38545Z" fill="url(#paint5_radial_11_6423)"/>
<path d="M14.6502 8.54063L14.6737 8.53348L14.694 8.51972L17.863 6.37235L17.8966 6.34958L17.9155 6.31366L19.9176 2.51301L24.3424 7.22235L26.787 9.97296H9.94221L14.6502 8.54063Z" stroke="white" stroke-opacity="0.01" stroke-width="0.3244"/>
</g>
<path d="M13.5285 8.38711L7.97876 10.1404H27.1196L23.0422 7.11197L19.871 2.25049L16.5865 6.23531L13.5285 8.38711Z" fill="url(#paint6_linear_11_6423)"/>
<g filter="url(#filter4_b_11_6423)">
<path d="M13.5285 8.38711L7.97876 10.1404H27.1196L23.0422 7.11197L19.871 2.25049L16.5865 6.23531L13.5285 8.38711Z" fill="white" fill-opacity="0.01"/>
</g>
<path d="M10.6394 17.1206L6.27832 10.0855L25.8112 10.1125L22.027 14.0092L19.1575 24.6817L14.1016 33L12.2253 22.7488L10.6394 17.1206Z" fill="url(#paint7_linear_11_6423)"/>
<g filter="url(#filter5_b_11_6423)">
<path d="M10.6394 17.1206L6.27832 10.0855L25.8112 10.1125L22.027 14.0092L19.1575 24.6817L14.1016 33L12.2253 22.7488L10.6394 17.1206Z" fill="white" fill-opacity="0.01"/>
</g>
<g filter="url(#filter6_b_11_6423)">
<path d="M10.3067 7.33388L6.21582 10.14H18.8602L17.0751 5.61618H15.7363L14.0718 1L11.7942 5.08896L10.3067 7.33388Z" fill="white" fill-opacity="0.01"/>
<path d="M10.3604 7.41224L10.3757 7.40179L10.3859 7.38637L11.8734 5.14145L11.8737 5.14161L11.8772 5.1352L14.0532 1.22863L15.6469 5.64841L15.6696 5.7112H15.7363H17.0105L18.7206 10.045H6.52234L10.3604 7.41224Z" stroke="url(#paint8_radial_11_6423)" stroke-width="0.19005"/>
</g>
<path d="M10.5819 7.33077L6.22876 10.1355H25.8121L21.9487 8.57123L19.0845 4.31632L14.0772 1L12.1649 5.08695L10.5819 7.33077Z" fill="url(#paint9_linear_11_6423)"/>
<g filter="url(#filter7_b_11_6423)">
<path d="M10.3066 7.33388L6.21582 10.14H24.6189L20.9883 8.57496L18.2967 4.31796L14.0717 1L11.7942 5.08896L10.3066 7.33388Z" fill="url(#paint10_radial_11_6423)"/>
<path d="M10.3984 7.46764L10.4244 7.44979L10.4418 7.42348L11.9294 5.17856L11.9298 5.17882L11.9359 5.16789L14.121 1.24491L18.1746 4.42826L20.8512 8.66164L20.878 8.70405L20.9241 8.72391L23.8329 9.97783H6.73901L10.3984 7.46764Z" stroke="white" stroke-opacity="0.01" stroke-width="0.3244"/>
</g>
<g filter="url(#filter8_b_11_6423)">
<path d="M10.3066 7.33388L6.21582 10.14H24.6189L20.9883 8.57496L18.2967 4.31796L14.0717 1L11.7942 5.08896L10.3066 7.33388Z" fill="url(#paint11_radial_11_6423)"/>
<path d="M10.3984 7.46764L10.4244 7.44979L10.4418 7.42348L11.9294 5.17856L11.9298 5.17882L11.9359 5.16789L14.121 1.24491L18.1746 4.42826L20.8512 8.66164L20.878 8.70405L20.9241 8.72391L23.8329 9.97783H6.73901L10.3984 7.46764Z" stroke="white" stroke-opacity="0.01" stroke-width="0.3244"/>
</g>
<g filter="url(#filter9_b_11_6423)">
<path d="M10.3067 7.33388L6.21582 10.14H18.8602L17.0751 5.61618H15.7363L14.0718 1L11.7942 5.08896L10.3067 7.33388Z" fill="url(#paint12_radial_11_6423)"/>
<path d="M10.3984 7.46764L10.4244 7.44979L10.4419 7.42348L11.9294 5.17856L11.9298 5.17882L11.9359 5.16789L14.0401 1.39025L15.5837 5.6712L15.6224 5.77838H15.7363H16.9648L18.6218 9.97783H6.73902L10.3984 7.46764Z" stroke="white" stroke-opacity="0.01" stroke-width="0.3244"/>
</g>
<g style="mix-blend-mode:color-burn" filter="url(#filter10_b_11_6423)">
<path d="M10.3067 7.33388L6.21582 10.14H18.8602L17.0751 5.61618H15.7363L14.0718 1L11.7942 5.08896L10.3067 7.33388Z" fill="url(#paint13_linear_11_6423)"/>
</g>
<path d="M12.4279 17.1201L8.85181 10.0849L19.9053 10.0849L17.9464 22.2993L16.776 22.2993L14.1514 32.949L13.7283 22.7482L12.4279 17.1201Z" fill="url(#paint14_linear_11_6423)"/>
<g filter="url(#filter11_b_11_6423)">
<path d="M10.3828 17.1369L6.29858 10.1089L18.9225 10.1089L17.1403 21.4388L15.8036 21.4389L14.1418 33L11.868 22.7593L10.3828 17.1369Z" fill="white" fill-opacity="0.01"/>
<path d="M10.4649 17.0891L10.4714 17.1002L10.4747 17.1126L11.9598 22.735L11.9599 22.735L11.9607 22.7387L14.1218 32.4714L15.7096 21.4253L15.7213 21.3438L15.8036 21.3438L17.059 21.3438L18.8113 10.204L6.46371 10.204L10.4649 17.0891Z" stroke="url(#paint15_radial_11_6423)" stroke-width="0.19005"/>
</g>
<path d="M12.3432 7.33077L8.75073 10.1355H19.8547L18.2871 5.61391H17.1114L14.0756 1L13.6495 5.08695L12.3432 7.33077Z" fill="url(#paint16_linear_11_6423)"/>
<g filter="url(#filter12_f_11_6423)">
<rect x="15.6663" y="21.1888" width="1.81701" height="0.504726" fill="#FF00E5"/>
</g>
<g filter="url(#filter13_b_11_6423)">
<path d="M12.3432 7.33077L8.75073 10.1355H19.8547L18.2871 5.61391H17.1114L14.0756 1L13.6495 5.08695L12.3432 7.33077Z" fill="white" fill-opacity="0.01"/>
</g>
<g filter="url(#filter14_b_11_6423)">
<path d="M10.3828 17.1369L6.29858 10.1089L18.9225 10.1089L17.1403 21.4388L15.8036 21.4389L14.1418 33L11.868 22.7593L10.3828 17.1369Z" fill="white" fill-opacity="0.5"/>
</g>
<g style="mix-blend-mode:soft-light" filter="url(#filter15_b_11_6423)">
<path d="M10.3828 17.1369L6.29858 10.1089L18.9225 10.1089L17.1403 21.4388L15.8036 21.4389L14.1418 33L11.868 22.7593L10.3828 17.1369Z" fill="url(#paint17_linear_11_6423)"/>
</g>
<path d="M8.09082 13.5562L5.04858 10.1087L15.5412 10.1087L13.3061 16.0634L11.5677 25.6222L9.76715 17.7871L8.09082 13.5562Z" fill="url(#paint18_linear_11_6423)"/>
<g filter="url(#filter16_b_11_6423)">
<path d="M8.09082 13.5562L5.04858 10.1087L15.5412 10.1087L13.3061 16.0634L11.5677 25.6222L9.76715 17.7871L8.09082 13.5562Z" fill="white" fill-opacity="0.5"/>
</g>
<g style="mix-blend-mode:soft-light" filter="url(#filter17_b_11_6423)">
<path d="M8.09082 13.5562L5.04858 10.1087L15.5412 10.1087L13.3061 16.0634L11.5677 25.6222L9.76715 17.7871L8.09082 13.5562Z" fill="url(#paint19_linear_11_6423)"/>
</g>
<path d="M10.0729 13.538L5.06689 10.0853L16.6503 10.0853L14.3717 16.049L11.6536 25.5299L11.4546 17.7753L10.0729 13.538Z" fill="url(#paint20_linear_11_6423)"/>
<g filter="url(#filter18_b_11_6423)">
<path d="M10.0729 13.538L5.06689 10.0853L16.6503 10.0853L14.3717 16.049L11.6536 25.5299L11.4546 17.7753L10.0729 13.538Z" fill="white" fill-opacity="0.01"/>
</g>
<path d="M9.9689 8.76512L7.43823 10.1352H16.6242L14.3072 7.76867L11.5013 4.00281L11.3633 7.08362L9.9689 8.76512Z" fill="url(#paint21_linear_11_6423)"/>
<g filter="url(#filter19_b_11_6423)">
<path d="M8.03182 8.78424L4.96582 10.1596H15.5404L13.2878 7.784L11.5358 3.97058L9.72125 7.09633L8.03182 8.78424Z" fill="white" fill-opacity="0.01"/>
<path d="M8.07071 8.87094L8.08664 8.8638L8.09898 8.85146L9.78841 7.16356L9.79719 7.15478L9.80343 7.14404L11.526 4.17679L13.2015 7.82367L13.208 7.83797L13.2189 7.84938L15.3193 10.0645H5.40983L8.07071 8.87094Z" stroke="url(#paint22_radial_11_6423)" stroke-width="0.19005"/>
</g>
<g filter="url(#filter20_b_11_6423)">
<path d="M8.03182 8.78424L4.96582 10.1596H15.5404L13.2878 7.784L11.5358 3.97058L9.72125 7.09633L8.03182 8.78424Z" fill="url(#paint23_radial_11_6423)"/>
<path d="M8.09821 8.93223L8.12539 8.92004L8.14646 8.89899L9.83589 7.21108L9.85088 7.1961L9.86152 7.17777L11.519 4.32257L13.1404 7.85172L13.1516 7.87612L13.1701 7.89561L15.1631 9.99737H5.72371L8.09821 8.93223Z" stroke="white" stroke-opacity="0.01" stroke-width="0.3244"/>
</g>
<g style="mix-blend-mode:color-burn" filter="url(#filter21_b_11_6423)">
<path d="M8.03182 8.78424L4.96582 10.1596H15.5404L13.2878 7.784L11.5358 3.97058L9.72125 7.09633L8.03182 8.78424Z" fill="url(#paint24_linear_11_6423)"/>
</g>
<g filter="url(#filter22_f_11_6423)">
<rect x="15.2102" y="9.8833" width="1.81701" height="0.504726" fill="#E2FFF6"/>
</g>
<g filter="url(#filter23_f_11_6423)">
<rect x="5.41992" y="9.78223" width="1.21134" height="0.504726" fill="#E2FFF6"/>
</g>
<g filter="url(#filter24_f_11_6423)">
<rect x="18.9475" y="10.0344" width="1.81701" height="0.504726" fill="#E2FFF6"/>
</g>
<g filter="url(#filter25_f_11_6423)">
<rect x="14.2544" y="1" width="3.20011" height="0.504726" transform="rotate(37.3164 14.2544 1)" fill="url(#paint25_linear_11_6423)"/>
</g>
<g filter="url(#filter26_f_11_6423)">
<rect x="11.646" y="4.00647" width="1.81701" height="0.504726" transform="rotate(57.6396 11.646 4.00647)" fill="#E2FFF6"/>
</g>
<g filter="url(#filter27_f_11_6423)">
<rect x="15.5652" y="10.085" width="1.00945" height="0.100945" fill="#E2FFF6"/>
</g>
<g filter="url(#filter28_f_11_6423)">
<rect x="18.896" y="10.085" width="1.00945" height="0.100945" fill="#E2FFF6"/>
</g>
<g filter="url(#filter29_f_11_6423)">
<rect x="14.1277" y="1.05054" width="1.00945" height="0.0504837" transform="rotate(33.297 14.1277 1.05054)" fill="#E2FFF6"/>
</g>
<g filter="url(#filter30_f_11_6423)">
<rect x="11.5081" y="4.00964" width="1.00945" height="0.0504837" transform="rotate(53.6202 11.5081 4.00964)" fill="#E2FFF6"/>
</g>
<g filter="url(#filter31_f_11_6423)">
<rect x="24.6497" y="9.93384" width="1.81701" height="0.504726" fill="#E2FFF6"/>
</g>
<path d="M50.6757 25.308C49.6197 25.308 48.659 25.0733 47.7937 24.604C46.943 24.12 46.261 23.4233 45.7477 22.514C45.249 21.59 44.9997 20.468 44.9997 19.148V15.452C44.9997 13.472 45.557 11.954 46.6717 10.898C47.7864 9.82733 49.297 9.292 51.2037 9.292C53.0957 9.292 54.555 9.798 55.5817 10.81C56.623 11.8073 57.1437 13.164 57.1437 14.88V14.968H54.2837V14.792C54.2837 14.2493 54.1664 13.758 53.9317 13.318C53.7117 12.878 53.3744 12.5333 52.9197 12.284C52.465 12.02 51.893 11.888 51.2037 11.888C50.177 11.888 49.3704 12.2033 48.7837 12.834C48.197 13.4647 47.9037 14.3227 47.9037 15.408V19.192C47.9037 20.2627 48.197 21.128 48.7837 21.788C49.3704 22.4333 50.1917 22.756 51.2477 22.756C52.3037 22.756 53.0737 22.4773 53.5577 21.92C54.0417 21.3627 54.2837 20.6587 54.2837 19.808V19.588H50.6317V17.124H57.1437V25H54.4597V23.526H54.0637C53.961 23.7753 53.7924 24.0393 53.5577 24.318C53.3377 24.5967 53.0004 24.8313 52.5457 25.022C52.091 25.2127 51.4677 25.308 50.6757 25.308ZM63.5481 25V9.6H66.4521V22.36H73.4921V25H63.5481ZM78.0459 25L82.0939 9.6H87.1539L91.2019 25H88.2099L87.3739 21.612H81.8739L81.0379 25H78.0459ZM82.5559 18.928H86.6919L84.8219 11.426H84.4259L82.5559 18.928ZM102.398 25.308C100.492 25.308 98.981 24.78 97.8664 23.724C96.7517 22.6533 96.1944 21.128 96.1944 19.148V15.452C96.1944 13.472 96.7517 11.954 97.8664 10.898C98.981 9.82733 100.492 9.292 102.398 9.292C104.29 9.292 105.75 9.81267 106.776 10.854C107.818 11.8807 108.338 13.296 108.338 15.1V15.232H105.478V15.012C105.478 14.1027 105.222 13.3547 104.708 12.768C104.21 12.1813 103.44 11.888 102.398 11.888C101.372 11.888 100.565 12.2033 99.9784 12.834C99.3917 13.4647 99.0984 14.3227 99.0984 15.408V19.192C99.0984 20.2627 99.3917 21.1207 99.9784 21.766C100.565 22.3967 101.372 22.712 102.398 22.712C103.44 22.712 104.21 22.4187 104.708 21.832C105.222 21.2307 105.478 20.4827 105.478 19.588V19.192H108.338V19.5C108.338 21.304 107.818 22.7267 106.776 23.768C105.75 24.7947 104.29 25.308 102.398 25.308ZM113.895 25V22.448H116.315V12.152H113.895V9.6H121.639V12.152H119.219V22.448H121.639V25H113.895ZM127.74 25V9.6H137.64V12.24H130.644V15.914H137.024V18.554H130.644V22.36H137.772V25H127.74ZM143.552 25V9.6H150.24C151.208 9.6 152.051 9.76867 152.77 10.106C153.488 10.4433 154.046 10.92 154.442 11.536C154.838 12.152 155.036 12.878 155.036 13.714V13.978C155.036 14.902 154.816 15.65 154.376 16.222C153.936 16.794 153.393 17.212 152.748 17.476V17.872C153.334 17.9013 153.789 18.1067 154.112 18.488C154.434 18.8547 154.596 19.346 154.596 19.962V25H151.692V20.38C151.692 20.028 151.596 19.742 151.406 19.522C151.23 19.302 150.929 19.192 150.504 19.192H146.456V25H143.552ZM146.456 16.552H149.932C150.621 16.552 151.156 16.3687 151.538 16.002C151.934 15.6207 152.132 15.122 152.132 14.506V14.286C152.132 13.67 151.941 13.1787 151.56 12.812C151.178 12.4307 150.636 12.24 149.932 12.24H146.456V16.552Z" fill="white"/>
<defs>
<filter id="filter0_b_11_6423" x="3.60675" y="5.67474" width="27.9525" height="28.6246" filterUnits="userSpaceOnUse" color-interpolation-filters="sRGB">
<feFlood flood-opacity="0" result="BackgroundImageFix"/>
<feGaussianBlur in="BackgroundImageFix" stdDeviation="2.21725"/>
<feComposite in2="SourceAlpha" operator="in" result="effect1_backgroundBlur_11_6423"/>
<feBlend mode="normal" in="SourceGraphic" in2="effect1_backgroundBlur_11_6423" result="shape"/>
</filter>
<filter id="filter1_b_11_6423" x="3.60675" y="5.67474" width="27.9525" height="28.6246" filterUnits="userSpaceOnUse" color-interpolation-filters="sRGB">
<feFlood flood-opacity="0" result="BackgroundImageFix"/>
<feGaussianBlur in="BackgroundImageFix" stdDeviation="2.21725"/>
<feComposite in2="SourceAlpha" operator="in" result="effect1_backgroundBlur_11_6423"/>
<feBlend mode="normal" in="SourceGraphic" in2="effect1_backgroundBlur_11_6423" result="shape"/>
</filter>
<filter id="filter2_b_11_6423" x="1.86407" y="5.67438" width="27.1708" height="31.7601" filterUnits="userSpaceOnUse" color-interpolation-filters="sRGB">
<feFlood flood-opacity="0" result="BackgroundImageFix"/>
<feGaussianBlur in="BackgroundImageFix" stdDeviation="2.21725"/>
<feComposite in2="SourceAlpha" operator="in" result="effect1_backgroundBlur_11_6423"/>
<feBlend mode="normal" in="SourceGraphic" in2="effect1_backgroundBlur_11_6423" result="shape"/>
</filter>
<filter id="filter3_b_11_6423" x="4.4173" y="-2.1983" width="27.1654" height="16.7679" filterUnits="userSpaceOnUse" color-interpolation-filters="sRGB">
<feFlood flood-opacity="0" result="BackgroundImageFix"/>
<feGaussianBlur in="BackgroundImageFix" stdDeviation="2.21725"/>
<feComposite in2="SourceAlpha" operator="in" result="effect1_backgroundBlur_11_6423"/>
<feBlend mode="normal" in="SourceGraphic" in2="effect1_backgroundBlur_11_6423" result="shape"/>
</filter>
<filter id="filter4_b_11_6423" x="3.54425" y="-2.18402" width="28.0099" height="16.7589" filterUnits="userSpaceOnUse" color-interpolation-filters="sRGB">
<feFlood flood-opacity="0" result="BackgroundImageFix"/>
<feGaussianBlur in="BackgroundImageFix" stdDeviation="2.21725"/>
<feComposite in2="SourceAlpha" operator="in" result="effect1_backgroundBlur_11_6423"/>
<feBlend mode="normal" in="SourceGraphic" in2="effect1_backgroundBlur_11_6423" result="shape"/>
</filter>
<filter id="filter5_b_11_6423" x="1.84381" y="5.65094" width="28.402" height="31.7836" filterUnits="userSpaceOnUse" color-interpolation-filters="sRGB">
<feFlood flood-opacity="0" result="BackgroundImageFix"/>
<feGaussianBlur in="BackgroundImageFix" stdDeviation="2.21725"/>
<feComposite in2="SourceAlpha" operator="in" result="effect1_backgroundBlur_11_6423"/>
<feBlend mode="normal" in="SourceGraphic" in2="effect1_backgroundBlur_11_6423" result="shape"/>
</filter>
<filter id="filter6_b_11_6423" x="1.78131" y="-3.43451" width="21.5133" height="18.009" filterUnits="userSpaceOnUse" color-interpolation-filters="sRGB">
<feFlood flood-opacity="0" result="BackgroundImageFix"/>
<feGaussianBlur in="BackgroundImageFix" stdDeviation="2.21725"/>
<feComposite in2="SourceAlpha" operator="in" result="effect1_backgroundBlur_11_6423"/>
<feBlend mode="normal" in="SourceGraphic" in2="effect1_backgroundBlur_11_6423" result="shape"/>
</filter>
<filter id="filter7_b_11_6423" x="1.78131" y="-3.43451" width="27.2721" height="18.009" filterUnits="userSpaceOnUse" color-interpolation-filters="sRGB">
<feFlood flood-opacity="0" result="BackgroundImageFix"/>
<feGaussianBlur in="BackgroundImageFix" stdDeviation="2.21725"/>
<feComposite in2="SourceAlpha" operator="in" result="effect1_backgroundBlur_11_6423"/>
<feBlend mode="normal" in="SourceGraphic" in2="effect1_backgroundBlur_11_6423" result="shape"/>
</filter>
<filter id="filter8_b_11_6423" x="1.78131" y="-3.43451" width="27.2721" height="18.009" filterUnits="userSpaceOnUse" color-interpolation-filters="sRGB">
<feFlood flood-opacity="0" result="BackgroundImageFix"/>
<feGaussianBlur in="BackgroundImageFix" stdDeviation="2.21725"/>
<feComposite in2="SourceAlpha" operator="in" result="effect1_backgroundBlur_11_6423"/>
<feBlend mode="normal" in="SourceGraphic" in2="effect1_backgroundBlur_11_6423" result="shape"/>
</filter>
<filter id="filter9_b_11_6423" x="1.78131" y="-3.43451" width="21.5133" height="18.009" filterUnits="userSpaceOnUse" color-interpolation-filters="sRGB">
<feFlood flood-opacity="0" result="BackgroundImageFix"/>
<feGaussianBlur in="BackgroundImageFix" stdDeviation="2.21725"/>
<feComposite in2="SourceAlpha" operator="in" result="effect1_backgroundBlur_11_6423"/>
<feBlend mode="normal" in="SourceGraphic" in2="effect1_backgroundBlur_11_6423" result="shape"/>
</filter>
<filter id="filter10_b_11_6423" x="1.78131" y="-3.43451" width="21.5133" height="18.009" filterUnits="userSpaceOnUse" color-interpolation-filters="sRGB">
<feFlood flood-opacity="0" result="BackgroundImageFix"/>
<feGaussianBlur in="BackgroundImageFix" stdDeviation="2.21725"/>
<feComposite in2="SourceAlpha" operator="in" result="effect1_backgroundBlur_11_6423"/>
<feBlend mode="normal" in="SourceGraphic" in2="effect1_backgroundBlur_11_6423" result="shape"/>
</filter>
<filter id="filter11_b_11_6423" x="1.86407" y="5.67438" width="21.493" height="31.7601" filterUnits="userSpaceOnUse" color-interpolation-filters="sRGB">
<feFlood flood-opacity="0" result="BackgroundImageFix"/>
<feGaussianBlur in="BackgroundImageFix" stdDeviation="2.21725"/>
<feComposite in2="SourceAlpha" operator="in" result="effect1_backgroundBlur_11_6423"/>
<feBlend mode="normal" in="SourceGraphic" in2="effect1_backgroundBlur_11_6423" result="shape"/>
</filter>
<filter id="filter12_f_11_6423" x="14.8427" y="20.3653" width="3.464" height="2.15186" filterUnits="userSpaceOnUse" color-interpolation-filters="sRGB">
<feFlood flood-opacity="0" result="BackgroundImageFix"/>
<feBlend mode="normal" in="SourceGraphic" in2="BackgroundImageFix" result="shape"/>
<feGaussianBlur stdDeviation="0.411776" result="effect1_foregroundBlur_11_6423"/>
</filter>
<filter id="filter13_b_11_6423" x="4.31622" y="-3.43451" width="19.973" height="18.0045" filterUnits="userSpaceOnUse" color-interpolation-filters="sRGB">
<feFlood flood-opacity="0" result="BackgroundImageFix"/>
<feGaussianBlur in="BackgroundImageFix" stdDeviation="2.21725"/>
<feComposite in2="SourceAlpha" operator="in" result="effect1_backgroundBlur_11_6423"/>
<feBlend mode="normal" in="SourceGraphic" in2="effect1_backgroundBlur_11_6423" result="shape"/>
</filter>
<filter id="filter14_b_11_6423" x="1.86407" y="5.67438" width="21.493" height="31.7601" filterUnits="userSpaceOnUse" color-interpolation-filters="sRGB">
<feFlood flood-opacity="0" result="BackgroundImageFix"/>
<feGaussianBlur in="BackgroundImageFix" stdDeviation="2.21725"/>
<feComposite in2="SourceAlpha" operator="in" result="effect1_backgroundBlur_11_6423"/>
<feBlend mode="normal" in="SourceGraphic" in2="effect1_backgroundBlur_11_6423" result="shape"/>
</filter>
<filter id="filter15_b_11_6423" x="1.86407" y="5.67438" width="21.493" height="31.7601" filterUnits="userSpaceOnUse" color-interpolation-filters="sRGB">
<feFlood flood-opacity="0" result="BackgroundImageFix"/>
<feGaussianBlur in="BackgroundImageFix" stdDeviation="2.21725"/>
<feComposite in2="SourceAlpha" operator="in" result="effect1_backgroundBlur_11_6423"/>
<feBlend mode="normal" in="SourceGraphic" in2="effect1_backgroundBlur_11_6423" result="shape"/>
</filter>
<filter id="filter16_b_11_6423" x="0.614075" y="5.67426" width="19.3617" height="24.3824" filterUnits="userSpaceOnUse" color-interpolation-filters="sRGB">
<feFlood flood-opacity="0" result="BackgroundImageFix"/>
<feGaussianBlur in="BackgroundImageFix" stdDeviation="2.21725"/>
<feComposite in2="SourceAlpha" operator="in" result="effect1_backgroundBlur_11_6423"/>
<feBlend mode="normal" in="SourceGraphic" in2="effect1_backgroundBlur_11_6423" result="shape"/>
</filter>
<filter id="filter17_b_11_6423" x="0.614075" y="5.67426" width="19.3617" height="24.3824" filterUnits="userSpaceOnUse" color-interpolation-filters="sRGB">
<feFlood flood-opacity="0" result="BackgroundImageFix"/>
<feGaussianBlur in="BackgroundImageFix" stdDeviation="2.21725"/>
<feComposite in2="SourceAlpha" operator="in" result="effect1_backgroundBlur_11_6423"/>
<feBlend mode="normal" in="SourceGraphic" in2="effect1_backgroundBlur_11_6423" result="shape"/>
</filter>
<filter id="filter18_b_11_6423" x="0.632385" y="5.65082" width="20.4525" height="24.3136" filterUnits="userSpaceOnUse" color-interpolation-filters="sRGB">
<feFlood flood-opacity="0" result="BackgroundImageFix"/>
<feGaussianBlur in="BackgroundImageFix" stdDeviation="2.21725"/>
<feComposite in2="SourceAlpha" operator="in" result="effect1_backgroundBlur_11_6423"/>
<feBlend mode="normal" in="SourceGraphic" in2="effect1_backgroundBlur_11_6423" result="shape"/>
</filter>
<filter id="filter19_b_11_6423" x="0.531311" y="-0.463928" width="19.4435" height="15.058" filterUnits="userSpaceOnUse" color-interpolation-filters="sRGB">
<feFlood flood-opacity="0" result="BackgroundImageFix"/>
<feGaussianBlur in="BackgroundImageFix" stdDeviation="2.21725"/>
<feComposite in2="SourceAlpha" operator="in" result="effect1_backgroundBlur_11_6423"/>
<feBlend mode="normal" in="SourceGraphic" in2="effect1_backgroundBlur_11_6423" result="shape"/>
</filter>
<filter id="filter20_b_11_6423" x="0.531311" y="-0.463928" width="19.4435" height="15.058" filterUnits="userSpaceOnUse" color-interpolation-filters="sRGB">
<feFlood flood-opacity="0" result="BackgroundImageFix"/>
<feGaussianBlur in="BackgroundImageFix" stdDeviation="2.21725"/>
<feComposite in2="SourceAlpha" operator="in" result="effect1_backgroundBlur_11_6423"/>
<feBlend mode="normal" in="SourceGraphic" in2="effect1_backgroundBlur_11_6423" result="shape"/>
</filter>
<filter id="filter21_b_11_6423" x="0.531311" y="-0.463928" width="19.4435" height="15.058" filterUnits="userSpaceOnUse" color-interpolation-filters="sRGB">
<feFlood flood-opacity="0" result="BackgroundImageFix"/>
<feGaussianBlur in="BackgroundImageFix" stdDeviation="2.21725"/>
<feComposite in2="SourceAlpha" operator="in" result="effect1_backgroundBlur_11_6423"/>
<feBlend mode="normal" in="SourceGraphic" in2="effect1_backgroundBlur_11_6423" result="shape"/>
</filter>
<filter id="filter22_f_11_6423" x="14.3867" y="9.05975" width="3.464" height="2.15186" filterUnits="userSpaceOnUse" color-interpolation-filters="sRGB">
<feFlood flood-opacity="0" result="BackgroundImageFix"/>
<feBlend mode="normal" in="SourceGraphic" in2="BackgroundImageFix" result="shape"/>
<feGaussianBlur stdDeviation="0.411776" result="effect1_foregroundBlur_11_6423"/>
</filter>
<filter id="filter23_f_11_6423" x="4.59637" y="8.95867" width="2.85853" height="2.15186" filterUnits="userSpaceOnUse" color-interpolation-filters="sRGB">
<feFlood flood-opacity="0" result="BackgroundImageFix"/>
<feBlend mode="normal" in="SourceGraphic" in2="BackgroundImageFix" result="shape"/>
<feGaussianBlur stdDeviation="0.411776" result="effect1_foregroundBlur_11_6423"/>
</filter>
<filter id="filter24_f_11_6423" x="18.124" y="9.21087" width="3.464" height="2.15186" filterUnits="userSpaceOnUse" color-interpolation-filters="sRGB">
<feFlood flood-opacity="0" result="BackgroundImageFix"/>
<feBlend mode="normal" in="SourceGraphic" in2="BackgroundImageFix" result="shape"/>
<feGaussianBlur stdDeviation="0.411776" result="effect1_foregroundBlur_11_6423"/>
</filter>
<filter id="filter25_f_11_6423" x="13.2516" y="0.303149" width="4.24478" height="3.73501" filterUnits="userSpaceOnUse" color-interpolation-filters="sRGB">
<feFlood flood-opacity="0" result="BackgroundImageFix"/>
<feBlend mode="normal" in="SourceGraphic" in2="BackgroundImageFix" result="shape"/>
<feGaussianBlur stdDeviation="0.348426" result="effect1_foregroundBlur_11_6423"/>
</filter>
<filter id="filter26_f_11_6423" x="10.3962" y="3.18292" width="3.04603" height="3.45204" filterUnits="userSpaceOnUse" color-interpolation-filters="sRGB">
<feFlood flood-opacity="0" result="BackgroundImageFix"/>
<feBlend mode="normal" in="SourceGraphic" in2="BackgroundImageFix" result="shape"/>
<feGaussianBlur stdDeviation="0.411776" result="effect1_foregroundBlur_11_6423"/>
</filter>
<filter id="filter27_f_11_6423" x="15.3751" y="9.89491" width="1.38962" height="0.481053" filterUnits="userSpaceOnUse" color-interpolation-filters="sRGB">
<feFlood flood-opacity="0" result="BackgroundImageFix"/>
<feBlend mode="normal" in="SourceGraphic" in2="BackgroundImageFix" result="shape"/>
<feGaussianBlur stdDeviation="0.0950252" result="effect1_foregroundBlur_11_6423"/>
</filter>
<filter id="filter28_f_11_6423" x="18.7059" y="9.89491" width="1.38962" height="0.481053" filterUnits="userSpaceOnUse" color-interpolation-filters="sRGB">
<feFlood flood-opacity="0" result="BackgroundImageFix"/>
<feBlend mode="normal" in="SourceGraphic" in2="BackgroundImageFix" result="shape"/>
<feGaussianBlur stdDeviation="0.0950252" result="effect1_foregroundBlur_11_6423"/>
</filter>
<filter id="filter29_f_11_6423" x="13.9098" y="0.860487" width="1.25168" height="0.976414" filterUnits="userSpaceOnUse" color-interpolation-filters="sRGB">
<feFlood flood-opacity="0" result="BackgroundImageFix"/>
<feBlend mode="normal" in="SourceGraphic" in2="BackgroundImageFix" result="shape"/>
<feGaussianBlur stdDeviation="0.0950252" result="effect1_foregroundBlur_11_6423"/>
</filter>
<filter id="filter30_f_11_6423" x="11.2775" y="3.81959" width="1.01926" height="1.22275" filterUnits="userSpaceOnUse" color-interpolation-filters="sRGB">
<feFlood flood-opacity="0" result="BackgroundImageFix"/>
<feBlend mode="normal" in="SourceGraphic" in2="BackgroundImageFix" result="shape"/>
<feGaussianBlur stdDeviation="0.0950252" result="effect1_foregroundBlur_11_6423"/>
</filter>
<filter id="filter31_f_11_6423" x="23.8261" y="9.11029" width="3.464" height="2.15186" filterUnits="userSpaceOnUse" color-interpolation-filters="sRGB">
<feFlood flood-opacity="0" result="BackgroundImageFix"/>
<feBlend mode="normal" in="SourceGraphic" in2="BackgroundImageFix" result="shape"/>
<feGaussianBlur stdDeviation="0.411776" result="effect1_foregroundBlur_11_6423"/>
</filter>
<linearGradient id="paint0_linear_11_6423" x1="16.1172" y1="2.88232" x2="16.1172" y2="31.1176" gradientUnits="userSpaceOnUse">
<stop stop-color="#F4F1F7"/>
<stop offset="0.441287" stop-color="#ECE3F3"/>
<stop offset="0.508997" stop-color="#8F7D9D"/>
<stop offset="1" stop-color="#F6ECFD"/>
</linearGradient>
<linearGradient id="paint1_linear_11_6423" x1="17.0849" y1="30.0067" x2="17.0849" y2="10.0851" gradientUnits="userSpaceOnUse">
<stop stop-color="#FF5D2A"/>
<stop offset="0.232292" stop-color="#FF00D6"/>
<stop offset="0.419792" stop-color="#BD00FF"/>
<stop offset="0.6125" stop-color="#6100FF"/>
<stop offset="0.815625" stop-color="#009CF3"/>
<stop offset="1" stop-color="#00FFB2"/>
</linearGradient>
<radialGradient id="paint2_radial_11_6423" cx="0" cy="0" r="1" gradientUnits="userSpaceOnUse" gradientTransform="translate(14.716 30.4017) rotate(-106.112) scale(24.0521 25.8105)">
<stop stop-color="#BD6AFF" stop-opacity="0.66"/>
<stop offset="1" stop-color="white"/>
</radialGradient>
<linearGradient id="paint3_linear_11_6423" x1="24.9498" y1="28.863" x2="22.9124" y2="10.1047" gradientUnits="userSpaceOnUse">
<stop stop-color="#F4F1F7"/>
<stop offset="0.360934" stop-color="#ECE3F3"/>
<stop offset="0.523403" stop-color="#8F7D9D"/>
<stop offset="1" stop-color="#F6ECFD"/>
</linearGradient>
<radialGradient id="paint4_radial_11_6423" cx="0" cy="0" r="1" gradientUnits="userSpaceOnUse" gradientTransform="translate(12.7089 33.6221) rotate(-103.464) scale(27.5315 25.0923)">
<stop stop-color="#BD6AFF" stop-opacity="0.66"/>
<stop offset="1" stop-color="white"/>
</radialGradient>
<radialGradient id="paint5_radial_11_6423" cx="0" cy="0" r="1" gradientUnits="userSpaceOnUse" gradientTransform="translate(15.7689 2.04748) rotate(126.909) scale(11.5179 22.2614)">
<stop stop-color="#BD6AFF" stop-opacity="0.66"/>
<stop offset="1" stop-color="white"/>
</radialGradient>
<linearGradient id="paint6_linear_11_6423" x1="17.0722" y1="2.20794" x2="17.0722" y2="10.1404" gradientUnits="userSpaceOnUse">
<stop stop-color="#FF5D2A"/>
<stop offset="0.232292" stop-color="#FF00D6"/>
<stop offset="0.419792" stop-color="#BD00FF"/>
<stop offset="0.6125" stop-color="#6100FF"/>
<stop offset="0.815625" stop-color="#009CF3"/>
<stop offset="1" stop-color="#00FFB2"/>
</linearGradient>
<linearGradient id="paint7_linear_11_6423" x1="15.558" y1="33.1874" x2="15.558" y2="10.0855" gradientUnits="userSpaceOnUse">
<stop stop-color="#FF5D2A"/>
<stop offset="0.232292" stop-color="#FF00D6"/>
<stop offset="0.419792" stop-color="#BD00FF"/>
<stop offset="0.6125" stop-color="#6100FF"/>
<stop offset="0.815625" stop-color="#009CF3"/>
<stop offset="1" stop-color="#00FFB2"/>
</linearGradient>
<radialGradient id="paint8_radial_11_6423" cx="0" cy="0" r="1" gradientUnits="userSpaceOnUse" gradientTransform="translate(10.6251 0.751622) rotate(112.413) scale(11.5644 16.4068)">
<stop stop-color="#E2BCFF" stop-opacity="0.66"/>
<stop offset="1" stop-color="white"/>
</radialGradient>
<linearGradient id="paint9_linear_11_6423" x1="15.5325" y1="0.925286" x2="15.5325" y2="10.1355" gradientUnits="userSpaceOnUse">
<stop stop-color="#FF5D2A"/>
<stop offset="0.232292" stop-color="#FF00D6"/>
<stop offset="0.419792" stop-color="#BD00FF"/>
<stop offset="0.6125" stop-color="#6100FF"/>
<stop offset="0.815625" stop-color="#009CF3"/>
<stop offset="1" stop-color="#00FFB2"/>
</linearGradient>
<radialGradient id="paint10_radial_11_6423" cx="0" cy="0" r="1" gradientUnits="userSpaceOnUse" gradientTransform="translate(12.6333 0.751622) rotate(120.976) scale(12.469 22.1465)">
<stop stop-color="#BD6AFF" stop-opacity="0.66"/>
<stop offset="1" stop-color="white"/>
</radialGradient>
<radialGradient id="paint11_radial_11_6423" cx="0" cy="0" r="1" gradientUnits="userSpaceOnUse" gradientTransform="translate(12.6333 0.751622) rotate(120.976) scale(12.469 22.1465)">
<stop stop-color="#BD6AFF" stop-opacity="0.66"/>
<stop offset="1" stop-color="white"/>
</radialGradient>
<radialGradient id="paint12_radial_11_6423" cx="0" cy="0" r="1" gradientUnits="userSpaceOnUse" gradientTransform="translate(10.6251 0.751622) rotate(112.413) scale(11.5644 16.4068)">
<stop stop-color="white" stop-opacity="0.66"/>
<stop offset="1" stop-color="white"/>
</radialGradient>
<linearGradient id="paint13_linear_11_6423" x1="17.4192" y1="1.46352" x2="16.757" y2="10.1943" gradientUnits="userSpaceOnUse">
<stop stop-color="#F4F1F7"/>
<stop offset="0.106596" stop-color="#ECE3F3"/>
<stop offset="0.523403" stop-color="#8F7D9D"/>
<stop offset="1" stop-color="#F6ECFD"/>
</linearGradient>
<linearGradient id="paint14_linear_11_6423" x1="14.1031" y1="33.123" x2="14.1031" y2="10.0849" gradientUnits="userSpaceOnUse">
<stop stop-color="#FF5D2A"/>
<stop offset="0.232292" stop-color="#FF00D6"/>
<stop offset="0.54178" stop-color="#BD00FF"/>
<stop offset="0.71599" stop-color="#6100FF"/>
<stop offset="0.887272" stop-color="#009CF3"/>
<stop offset="1" stop-color="#00FFB2"/>
</linearGradient>
<radialGradient id="paint15_radial_11_6423" cx="0" cy="0" r="1" gradientUnits="userSpaceOnUse" gradientTransform="translate(10.7008 33.6221) rotate(-99.3367) scale(27.1343 17.484)">
<stop stop-color="#E2BCFF" stop-opacity="0.66"/>
<stop offset="1" stop-color="white"/>
</radialGradient>
<linearGradient id="paint16_linear_11_6423" x1="14.026" y1="0.950729" x2="14.026" y2="10.1355" gradientUnits="userSpaceOnUse">
<stop stop-color="#FF5D2A"/>
<stop offset="0.232292" stop-color="#FF00D6"/>
<stop offset="0.419792" stop-color="#BD00FF"/>
<stop offset="0.6125" stop-color="#6100FF"/>
<stop offset="0.815625" stop-color="#009CF3"/>
<stop offset="1" stop-color="#00FFB2"/>
</linearGradient>
<linearGradient id="paint17_linear_11_6423" x1="17.4838" y1="31.8391" x2="13.446" y2="10.6154" gradientUnits="userSpaceOnUse">
<stop stop-color="#F4F1F7"/>
<stop offset="0.620828" stop-color="#ECE3F3"/>
<stop offset="0.798282" stop-color="#8F7D9D"/>
<stop offset="1" stop-color="#F6ECFD"/>
</linearGradient>
<linearGradient id="paint18_linear_11_6423" x1="10.0334" y1="25.7059" x2="10.0334" y2="10.1087" gradientUnits="userSpaceOnUse">
<stop stop-color="#FF5D2A"/>
<stop offset="0.232292" stop-color="#FF00D6"/>
<stop offset="0.419792" stop-color="#BD00FF"/>
<stop offset="0.6125" stop-color="#6100FF"/>
<stop offset="0.815625" stop-color="#009CF3"/>
<stop offset="1" stop-color="#00FFB2"/>
</linearGradient>
<linearGradient id="paint19_linear_11_6423" x1="14.3454" y1="24.8355" x2="12.0877" y2="10.2816" gradientUnits="userSpaceOnUse">
<stop stop-color="#F4F1F7"/>
<stop offset="0.179601" stop-color="#ECE3F3"/>
<stop offset="0.475501" stop-color="#8F7D9D"/>
<stop offset="1" stop-color="#F6ECFD"/>
</linearGradient>
<linearGradient id="paint20_linear_11_6423" x1="11.8896" y1="25.6223" x2="11.8896" y2="10.0853" gradientUnits="userSpaceOnUse">
<stop stop-color="#FF5D2A"/>
<stop offset="0.232292" stop-color="#FF00D6"/>
<stop offset="0.419792" stop-color="#BD00FF"/>
<stop offset="0.6125" stop-color="#6100FF"/>
<stop offset="0.815625" stop-color="#009CF3"/>
<stop offset="1" stop-color="#00FFB2"/>
</linearGradient>
<linearGradient id="paint21_linear_11_6423" x1="11.8023" y1="3.96973" x2="11.8023" y2="10.1352" gradientUnits="userSpaceOnUse">
<stop stop-color="#FF5D2A"/>
<stop offset="0.232292" stop-color="#FF00D6"/>
<stop offset="0.419792" stop-color="#BD00FF"/>
<stop offset="0.6125" stop-color="#6100FF"/>
<stop offset="0.815625" stop-color="#009CF3"/>
<stop offset="1" stop-color="#00FFB2"/>
</linearGradient>
<radialGradient id="paint22_radial_11_6423" cx="0" cy="0" r="1" gradientUnits="userSpaceOnUse" gradientTransform="translate(8.65335 3.8024) rotate(116.994) scale(8.12414 13.2253)">
<stop stop-color="#E2BCFF" stop-opacity="0.66"/>
<stop offset="1" stop-color="white"/>
</radialGradient>
<radialGradient id="paint23_radial_11_6423" cx="0" cy="0" r="1" gradientUnits="userSpaceOnUse" gradientTransform="translate(8.65335 3.8024) rotate(116.994) scale(8.12414 13.2253)">
<stop stop-color="white" stop-opacity="0.66"/>
<stop offset="1" stop-color="white"/>
</radialGradient>
<linearGradient id="paint24_linear_11_6423" x1="14.3352" y1="4.28444" x2="13.9715" y2="10.208" gradientUnits="userSpaceOnUse">
<stop stop-color="#F4F1F7"/>
<stop offset="0.106596" stop-color="#ECE3F3"/>
<stop offset="0.523403" stop-color="#8F7D9D"/>
<stop offset="1" stop-color="#F6ECFD"/>
</linearGradient>
<linearGradient id="paint25_linear_11_6423" x1="14.4402" y1="1.20739" x2="17.2227" y2="0.736486" gradientUnits="userSpaceOnUse">
<stop stop-color="#E2FFF6"/>
<stop offset="1" stop-color="#E2FFF6" stop-opacity="0"/>
</linearGradient>
</defs>
</svg>
